<svg version="1.1" viewBox="0.0 0.0 960.0 720.0" fill="none" stroke="none" stroke-linecap="square" stroke-miterlimit="10" xmlns:xlink="http://www.w3.org/1999/xlink" xmlns="http://www.w3.org/2000/svg"><clipPath id="p.0"><path d="m0 0l960.0 0l0 720.0l-960.0 0l0 -720.0z" clip-rule="nonzero"/></clipPath><g clip-path="url(#p.0)"><path fill="#000000" fill-opacity="0.0" d="m0 0l960.0 0l0 720.0l-960.0 0z" fill-rule="evenodd"/><path fill="#000000" fill-opacity="0.0" d="m53.43307 38.036747l249.95276 0l0 41.669292l-249.95276 0z" fill-rule="evenodd"/><path fill="#000000" d="m78.97994 49.487995q0.53125 0.078125 0.71875 0.328125q0.203125 0.234375 0.203125 0.625q0 1.28125 -1.390625 1.1875l-0.65625 -0.046875q-1.09375 -0.09375 -2.1875 -0.140625q-1.09375 -0.0625 -2.28125 -0.0625l-0.84375 0q-0.21875 2.75 -0.46875 5.03125l3.21875 -0.046875q0.6875 0 0.921875 0.25q0.234375 0.234375 0.234375 0.640625q0 0.625 -0.375 1.0q-0.375 0.359375 -1.0625 0.359375l-3.1875 0l-0.125 0.796875q-0.390625 3.078125 -1.671875 4.390625q-1.265625 1.3124962 -3.515625 1.3124962q-1.265625 0 -2.328125 -0.546875q-1.0624962 -0.5625 -1.5624962 -1.3437462q-0.203125 -0.3125 -0.203125 -0.765625q0 -0.453125 0.203125 -0.78125q0.21875 -0.34375 0.546875 -0.34375q0.21875 0 0.421875 0.15625q0.21875 0.140625 0.5624962 0.578125q0.890625 1.171875 2.21875 1.171875q1.0625 0 1.78125 -0.859375q0.71875 -0.875 0.921875 -2.734375l0.109375 -1.03125l-0.890625 0q-0.4375 0 -0.75 -0.234375q-0.296875 -0.25 -0.296875 -0.703125q0 -0.578125 0.296875 -0.875q0.296875 -0.3125 0.875 -0.3125q0.53125 0 1.03125 -0.015625q0.21875 -2.0625 0.484375 -4.984375q-2.015625 0.1875 -2.84375 0.65625q-0.8125 0.46875 -0.8125 1.375q0 0.640625 0.375 1.21875q0.109375 0.15625 0.109375 0.328125q0 0.34375 -0.375 0.59375q-0.375 0.25 -0.84375 0.25q-0.5 0 -0.859375 -0.296875q-0.21875 -0.1875 -0.421875 -0.765625q-0.203125 -0.578125 -0.203125 -1.296875q0 -2.3125 2.375 -3.34375q2.375 -1.046875 6.953125 -1.046875q3.171875 0 5.59375 0.328125zm-0.4355011 15.562496q-0.875 0 -1.40625 -0.71875q-0.53125 -0.7187462 -0.53125 -1.9843712q0 -1.40625 0.1875 -2.5625q0.1875 -1.171875 0.625 -2.484375q0.1875 -0.546875 0.515625 -0.78125q0.34375 -0.25 1.0625 -0.25q0.40625 0 0.5625 0.125q0.171875 0.125 0.171875 0.390625q0 0.15625 -0.203125 1.015625q-0.1875 0.6875 -0.3125 1.25q-0.359375 1.953125 -0.359375 2.609375q0 0.390625 0.09375 0.546875q0.09375 0.15625 0.296875 0.15625q0.28125 0 0.703125 -0.5625q0.4375 -0.578125 0.90625 -1.71875q0.46875 -1.15625 0.90625 -2.78125q0.140625 -0.546875 0.453125 -0.78125q0.3125 -0.25 0.921875 -0.25q0.40625 0 0.578125 0.21875q0.1875 0.203125 0.1875 0.640625q0 0.453125 -0.078125 1.03125q-0.0625 0.5625 -0.15625 1.15625q-0.1875 1.203125 -0.3125 2.1875q-0.109375 0.96875 -0.109375 2.21875q0 0.7187462 -0.296875 1.0312462q-0.28125 0.296875 -0.921875 0.296875q-0.703125 0 -0.96875 -0.359375q-0.265625 -0.375 -0.265625 -1.4062462q0 -0.21875 0.03125 -0.921875q-0.3125 1.3125 -0.9375 1.9999962q-0.625 0.6875 -1.34375 0.6875zm12.035004 -2.7187462q0.21875 -0.1875 0.421875 -0.1875q0.21875 0 0.359375 0.25q0.140625 0.25 0.140625 0.609375q0 0.78125 -0.5625 1.2499962q-0.96875 0.796875 -2.203125 0.796875q-1.765625 0 -2.59375 -1.4843712q-0.8125 -1.484375 -0.8125 -3.875q0 -2.265625 0.578125 -5.171875q0.59375 -2.921875 1.734375 -5.0q1.15625 -2.09375 2.734375 -2.09375q0.90625 0 1.40625 0.828125q0.515625 0.828125 0.515625 2.375q0 2.21875 -1.21875 5.15625q-1.21875 2.921875 -3.328125 5.78125q0.125 0.765625 0.453125 1.109375q0.34375 0.328125 0.921875 0.328125q0.328125 0 0.71875 -0.1875q0.40625 -0.1875 0.734375 -0.484375zm-0.609375 -13.0625q-0.421875 0 -0.96875 1.546875q-0.546875 1.546875 -0.953125 3.84375q-0.40625 2.296875 -0.453125 4.40625q1.328125 -2.1875 2.109375 -4.375q0.78125 -2.203125 0.78125 -4.0q0 -1.421875 -0.515625 -1.421875zm7.474884 13.0625q0.21875 -0.1875 0.421875 -0.1875q0.21875 0 0.359375 0.25q0.140625 0.25 0.140625 0.609375q0 0.78125 -0.5625 1.2499962q-0.96875 0.796875 -2.203125 0.796875q-1.765625 0 -2.59375 -1.4843712q-0.8125 -1.484375 -0.8125 -3.875q0 -2.265625 0.578125 -5.171875q0.59375 -2.921875 1.734375 -5.0q1.15625 -2.09375 2.734375 -2.09375q0.90625 0 1.40625 0.828125q0.515625 0.828125 0.515625 2.375q0 2.21875 -1.21875 5.15625q-1.21875 2.921875 -3.328125 5.78125q0.125 0.765625 0.453125 1.109375q0.34375 0.328125 0.921875 0.328125q0.328125 0 0.71875 -0.1875q0.40625 -0.1875 0.734375 -0.484375zm-0.609375 -13.0625q-0.421875 0 -0.96875 1.546875q-0.546875 1.546875 -0.953125 3.84375q-0.40625 2.296875 -0.453125 4.40625q1.328125 -2.1875 2.109375 -4.375q0.78125 -2.203125 0.78125 -4.0q0 -1.421875 -0.515625 -1.421875zm12.231293 15.843746q-2.46875 0 -3.96875 -0.9375q-1.484375 -0.9531212 -1.484375 -2.8906212q0 -1.03125 0.34375 -1.5625q0.359375 -0.546875 1.046875 -0.546875q0.5 0 0.8125 0.265625q0.328125 0.25 0.328125 0.671875q0 0.359375 -0.0625 0.640625q0 0.078125 -0.03125 0.265625q-0.015625 0.1875 -0.015625 0.390625q0 0.84375 0.84375 1.25q0.84375 0.40625 2.375 0.40625q1.59375 0 2.484375 -0.5625q0.890625 -0.5625 0.890625 -1.59375q0 -0.640625 -0.40625 -1.09375q-0.40625 -0.453125 -1.03125 -0.765625q-0.609375 -0.3125 -1.71875 -0.75q-1.4375 -0.5625 -2.34375 -1.0625q-0.90625 -0.515625 -1.5625 -1.375q-0.640625 -0.875 -0.640625 -2.15625q0 -1.34375 0.71875 -2.390625q0.71875 -1.046875 2.0625 -1.625q1.359375 -0.578125 3.1875 -0.578125q1.375 0 2.5 0.40625q1.140625 0.40625 1.8125 1.234375q0.6875 0.8125 0.6875 2.0q0 1.171875 -0.359375 1.78125q-0.34375 0.59375 -1.03125 0.59375q-0.484375 0 -0.8125 -0.296875q-0.328125 -0.296875 -0.328125 -0.71875q0 -0.34375 0.0625 -0.65625q0.046875 -0.546875 0.046875 -0.703125q0 -0.78125 -0.765625 -1.1875q-0.765625 -0.421875 -1.90625 -0.421875q-1.59375 0 -2.453125 0.59375q-0.84375 0.59375 -0.84375 1.65625q0 0.703125 0.4375 1.21875q0.4375 0.5 1.09375 0.84375q0.65625 0.328125 1.828125 0.78125q1.421875 0.578125 2.28125 1.046875q0.859375 0.46875 1.453125 1.28125q0.609375 0.796875 0.609375 1.96875q0 2.203125 -1.671875 3.390625q-1.65625 1.1874962 -4.46875 1.1874962zm10.803787 -7.078121q-0.03125 0.9375 -0.03125 1.453125q0 1.34375 0.140625 2.109375q0.140625 0.75 0.46875 1.078125q0.328125 0.328125 0.90625 0.328125q0.296875 0 0.703125 -0.1875q0.40625 -0.1875 0.75 -0.484375q0.203125 -0.1875 0.40625 -0.1875q0.21875 0 0.359375 0.25q0.140625 0.25 0.140625 0.609375q0 0.34375 -0.140625 0.6875q-0.140625 0.3281212 -0.421875 0.5624962q-0.96875 0.796875 -2.1875 0.796875q-1.78125 0 -2.609375 -1.4843712q-0.8125 -1.484375 -0.8125 -3.875q0 -0.8125 0.0625 -1.65625l-0.734375 0q-0.5625 0 -0.765625 -0.203125q-0.1875 -0.203125 -0.1875 -0.65625q0 -1.046875 0.84375 -1.046875l1.0625 0q0.3125 -2.046875 0.96875 -3.734375q0.65625 -1.703125 1.578125 -2.703125q0.921875 -1.015625 1.984375 -1.015625q0.78125 0 1.234375 0.6875q0.453125 0.6875 0.453125 1.734375q0 2.890625 -2.4375 5.03125l2.09375 0q0.296875 0 0.421875 0.140625q0.140625 0.125 0.140625 0.484375q0 1.28125 -2.109375 1.28125l-2.28125 0zm1.984375 -7.578125q-0.28125 0 -0.625 0.703125q-0.34375 0.703125 -0.65625 1.953125q-0.3125 1.234375 -0.515625 2.734375q1.109375 -0.953125 1.65625 -2.125q0.546875 -1.1875 0.546875 -2.15625q0 -1.109375 -0.40625 -1.109375zm4.7987823 14.593746q-1.0625 0 -1.734375 -0.828125q-0.65625 -0.8437462 -0.65625 -2.2187462q0 -1.484375 0.6875 -2.8125q0.6875 -1.34375 1.828125 -2.15625q1.15625 -0.8125 2.4375076 -0.8125q0.421875 0 0.5625 0.171875q0.140625 0.15625 0.234375 0.5625q0.34375 -0.078125 0.78125 -0.078125q0.4375 0 0.671875 0.234375q0.25 0.21875 0.25 0.625q0 0.421875 -0.1875 1.484375q-0.203125 1.140625 -0.3125 2.1875q-0.109375 1.03125 -0.109375 2.3125q0 0.7187462 -0.296875 1.0312462q-0.28125 0.296875 -0.9375 0.296875q-0.625 0 -0.9375 -0.296875q-0.3125 -0.3125 -0.3125 -1.0156212l0.015625 -0.296875q-0.578125 1.6093712 -1.9843826 1.6093712zm0.71875 -1.8906212q0.53125 0 0.9531326 -0.71875q0.4375 -0.734375 0.765625 -2.59375l0.359375 -1.890625q-0.765625 0.015625 -1.421875 0.59375q-0.6562576 0.5625 -1.0468826 1.5q-0.390625 0.9375 -0.390625 1.984375q0 0.546875 0.21875 0.84375q0.21875 0.28125 0.5625 0.28125zm9.138329 1.8906212q-1.765625 0 -2.765625 -1.03125q-1.0 -1.0468712 -1.0 -2.7343712q0 -1.515625 0.59375 -2.65625q0.609375 -1.140625 1.546875 -1.75q0.953125 -0.609375 2.0 -0.609375q1.03125 0 1.59375 0.609375q0.578125 0.59375 0.578125 1.546875q0 0.78125 -0.34375 1.328125q-0.34375 0.53125 -0.90625 0.53125q-0.359375 0 -0.578125 -0.15625q-0.203125 -0.171875 -0.203125 -0.46875q0 -0.125 0.03125 -0.296875q0.03125 -0.171875 0.0625 -0.25q0.09375 -0.28125 0.09375 -0.515625q0 -0.25 -0.125 -0.375q-0.125 -0.125 -0.34375 -0.125q-0.4375 0 -0.8125 0.390625q-0.359375 0.375 -0.59375 1.03125q-0.21875 0.640625 -0.21875 1.421875q0 1.0625 0.4375 1.625q0.4375 0.546875 1.234375 0.546875q0.640625 0 1.171875 -0.375q0.53125 -0.375 1.046875 -1.109375q0.234375 -0.265625 0.515625 -0.265625q0.234375 0 0.375 0.21875q0.140625 0.21875 0.140625 0.609375q0 0.671875 -0.3125 1.15625q-0.5 0.7812462 -1.328125 1.2499962q-0.828125 0.453125 -1.890625 0.453125zm12.005875 -2.0312462q0.765625 0.140625 0.765625 0.84375q0 0.4531212 -0.421875 0.8281212q-0.421875 0.359375 -1.203125 0.359375q-1.34375 0 -2.203125 -0.828125q-0.84375 -0.8281212 -0.84375 -2.1718712q0 -0.734375 0.75 -1.046875q0.828125 -0.359375 1.171875 -0.75q0.359375 -0.40625 0.359375 -0.984375q0 -0.34375 -0.140625 -0.5q-0.140625 -0.171875 -0.34375 -0.171875q-0.5 0 -1.109375 0.734375q-0.609375 0.71875 -1.140625 1.875q-0.515625 1.140625 -0.8125 2.34375q-0.203125 0.8906212 -0.484375 1.2031212q-0.265625 0.296875 -0.84375 0.296875q-0.578125 0 -0.84375 -0.421875q-0.265625 -0.421875 -0.359375 -1.2968712q-0.09375 -0.875 -0.09375 -2.578125q0 -2.875 0.578125 -5.984375q0.59375 -3.109375 1.734375 -5.21875q1.15625 -2.125 2.75 -2.125q0.859375 0 1.390625 0.734375q0.53125 0.734375 0.53125 1.90625q0 1.890625 -1.09375 3.921875q-1.09375 2.015625 -3.578125 4.71875q-0.0625 0.96875 -0.0625 2.0q0.890625 -2.328125 2.046875 -3.375q1.171875 -1.0625 2.171875 -1.0625q0.9375 0 1.5 0.640625q0.578125 0.625 0.578125 1.546875q0 1.03125 -0.53125 1.890625q-0.515625 0.859375 -1.796875 1.53125q0.125 0.5625 0.46875 0.78125q0.34375 0.203125 1.109375 0.359375zm-3.125 -13.75q-0.328125 0 -0.75 0.96875q-0.40625 0.953125 -0.796875 2.59375q-0.375 1.625 -0.609375 3.546875q1.15625 -1.359375 1.90625 -2.96875q0.765625 -1.609375 0.765625 -2.90625q0 -0.609375 -0.140625 -0.921875q-0.125 -0.3125 -0.375 -0.3125zm33.554443 7.625q0.421875 0 0.609375 0.1875q0.203125 0.1875 0.203125 0.484375q0 0.484375 -0.296875 0.859375q-0.28125 0.375 -0.890625 0.390625q-1.484375 0.015625 -2.65625 -0.21875q-1.296875 2.78125 -3.140625 4.625q-1.84375 1.8281212 -3.625 1.8281212q-1.640625 0 -2.46875 -1.7343712q-0.8125 -1.75 -0.921875 -4.6875q-1.125 3.25 -2.53125 4.84375q-1.40625 1.5781212 -3.0 1.5781212q-1.796875 0 -2.71875 -2.2187462q-0.90625 -2.234375 -0.90625 -6.015625q0 -2.734375 0.5 -6.015625q0.125 -0.9375 0.46875 -1.296875q0.34375 -0.375 1.09375 -0.375q0.5625 0 0.859375 0.25q0.3125 0.25 0.3125 0.890625q0 0.140625 -0.03125 0.515625q-0.5625 3.8125 -0.5625 6.5q0 2.5 0.421875 3.875q0.4375 1.359375 1.15625 1.359375q0.65625 0 1.578125 -1.375q0.921875 -1.375 1.828125 -4.0625q0.921875 -2.703125 1.5625 -6.4375q0.140625 -0.859375 0.546875 -1.1875q0.40625 -0.328125 1.09375 -0.328125q0.578125 0 0.84375 0.265625q0.28125 0.25 0.28125 0.75q0 0.296875 -0.046875 0.46875q-0.515625 3.03125 -0.515625 6.078125q0 2.078125 0.140625 3.3125q0.140625 1.21875 0.53125 1.875q0.40625 0.640625 1.171875 0.640625q0.890625 0 1.984375 -1.359375q1.109375 -1.359375 2.03125 -3.359375q-1.140625 -0.71875 -1.71875 -1.84375q-0.578125 -1.125 -0.578125 -2.609375q0 -1.46875 0.453125 -2.484375q0.453125 -1.015625 1.25 -1.515625q0.796875 -0.515625 1.765625 -0.515625q1.1875 0 1.890625 0.859375q0.703125 0.859375 0.703125 2.359375q0 2.109375 -0.921875 4.671875q0.953125 0.171875 2.25 0.171875zm-5.515625 -3.671875q0 1.828125 1.1875 2.703125q0.71875 -2.09375 0.71875 -3.453125q0 -0.78125 -0.203125 -1.140625q-0.203125 -0.375 -0.5625 -0.375q-0.5 0 -0.828125 0.59375q-0.3125 0.59375 -0.3125 1.671875zm11.204666 8.140625q0.234375 0 0.375 0.21875q0.140625 0.21875 0.140625 0.609375q0 0.671875 -0.3125 1.15625q-0.53125 0.8124962 -1.375 1.2656212q-0.84375 0.4375 -2.015625 0.4375q-1.796875 0 -2.796875 -1.0624962q-0.984375 -1.078125 -0.984375 -2.90625q0 -1.296875 0.546875 -2.40625q0.546875 -1.109375 1.5 -1.75q0.96875 -0.65625 2.171875 -0.65625q1.078125 0 1.734375 0.640625q0.65625 0.640625 0.65625 1.734375q0 1.296875 -0.921875 2.21875q-0.921875 0.921875 -3.140625 1.46875q0.4375 0.859375 1.515625 0.859375q0.75 0 1.25 -0.359375q0.5 -0.359375 1.15625 -1.203125q0.21875 -0.265625 0.5 -0.265625zm-3.0625 -3.265625q-0.6875 0 -1.171875 0.796875q-0.46875 0.796875 -0.46875 1.9375l0 0.046875q1.09375 -0.265625 1.734375 -0.78125q0.640625 -0.53125 0.640625 -1.21875q0 -0.359375 -0.203125 -0.5625q-0.203125 -0.21875 -0.53125 -0.21875zm7.7458496 6.953121q-1.875 0 -2.71875 -1.4374962q-0.84375 -1.4375 -0.84375 -4.15625q0 -2.40625 0.59375 -5.234375q0.59375 -2.828125 1.734375 -4.8125q1.15625 -1.984375 2.734375 -1.984375q0.859375 0 1.375 0.734375q0.53125 0.734375 0.53125 1.90625q0 1.53125 -0.578125 3.046875q-0.578125 1.515625 -1.921875 3.171875q0.921875 0.078125 1.59375 0.625q0.6875 0.53125 1.046875 1.390625q0.359375 0.859375 0.359375 1.859375q0 1.40625 -0.546875 2.53125q-0.546875 1.109375 -1.453125 1.7343712q-0.890625 0.625 -1.90625 0.625zm-1.109375 -7.499996q1.234375 -2.25 1.96875 -3.96875q0.734375 -1.734375 0.734375 -3.078125q0 -0.609375 -0.140625 -0.921875q-0.140625 -0.3125 -0.375 -0.3125q-0.375 0 -0.8125 1.109375q-0.4375 1.109375 -0.8125 3.015625q-0.375 1.90625 -0.5625 4.15625zm1.1875 5.484375q0.625 0 1.0625 -0.6875q0.4375 -0.6875 0.4375 -2.015625q0 -1.03125 -0.375 -1.546875q-0.375 -0.53125 -0.890625 -0.53125q-0.65625 0 -1.109375 0.671875q-0.4375 0.671875 -0.4375 1.96875q0 1.109375 0.375 1.625q0.375 0.515625 0.9375 0.515625zm14.883759 2.0156212q-1.078125 0 -2.453125 -0.1875q-0.734375 -0.09375 -1.015625 -0.390625q-0.28125 -0.296875 -0.25 -0.9687462q0.140625 -1.84375 0.625 -4.5625q0.484375 -2.71875 1.171875 -5.234375q0.125 -0.46875 0.515625 -0.65625q0.390625 -0.1875 1.03125 -0.1875q1.140625 0 1.140625 0.640625q0 0.265625 -0.109375 0.59375q-0.5 1.5 -0.984375 4.015625q-0.484375 2.5 -0.6875 4.765625q0.5625 0.0625 1.265625 0.0625q3.265625 0 4.875 -1.96875q1.625 -1.984375 1.625 -5.28125q0 -2.234375 -1.265625 -3.4375q-1.265625 -1.21875 -3.578125 -1.21875q-1.5 0 -2.96875 0.46875q-1.453125 0.46875 -2.640625 1.234375q-0.234375 0.171875 -0.515625 0.171875q-0.3125 0 -0.5 -0.265625q-0.1875 -0.28125 -0.1875 -0.671875q0 -0.453125 0.140625 -0.734375q0.15625 -0.296875 0.515625 -0.53125q1.28125 -0.875 3.015625 -1.328125q1.734375 -0.46875 3.34375 -0.46875q2.265625 0 3.921875 0.796875q1.671875 0.796875 2.5625 2.328125q0.890625 1.515625 0.890625 3.6875q0 2.8125 -1.125 4.921875q-1.109375 2.09375 -3.25 3.25q-2.140625 1.1562462 -5.109375 1.1562462zm17.424759 -3.6874962q0.234375 0 0.375 0.21875q0.140625 0.21875 0.140625 0.609375q0 0.671875 -0.3125 1.15625q-0.53125 0.8124962 -1.375 1.2656212q-0.84375 0.4375 -2.015625 0.4375q-1.796875 0 -2.796875 -1.0624962q-0.984375 -1.078125 -0.984375 -2.90625q0 -1.296875 0.546875 -2.40625q0.546875 -1.109375 1.5 -1.75q0.96875 -0.65625 2.171875 -0.65625q1.078125 0 1.734375 0.640625q0.65625 0.640625 0.65625 1.734375q0 1.296875 -0.921875 2.21875q-0.921875 0.921875 -3.140625 1.46875q0.4375 0.859375 1.515625 0.859375q0.75 0 1.25 -0.359375q0.5 -0.359375 1.15625 -1.203125q0.21875 -0.265625 0.5 -0.265625zm-3.0625 -3.265625q-0.6875 0 -1.171875 0.796875q-0.46875 0.796875 -0.46875 1.9375l0 0.046875q1.09375 -0.265625 1.734375 -0.78125q0.640625 -0.53125 0.640625 -1.21875q0 -0.359375 -0.203125 -0.5625q-0.203125 -0.21875 -0.53125 -0.21875zm6.1052246 6.953121q-0.78125 0 -1.234375 -0.578125q-0.453125 -0.5937462 -0.5625 -1.9062462q-0.21875 -2.609375 -0.21875 -4.5625l0 -0.65625q0.015625 -0.625 0.328125 -0.859375q0.3125 -0.25 0.953125 -0.25q0.484375 0 0.71875 0.21875q0.234375 0.21875 0.234375 0.71875q0 2.140625 0.265625 5.578125q0.796875 -1.375 1.375 -2.515625q0.59375 -1.15625 1.28125 -3.046875q0.21875 -0.5625 0.546875 -0.75q0.34375 -0.203125 0.84375 -0.203125q1.015625 0 1.015625 0.65625q0 0.234375 -0.140625 0.625q-1.515625 3.515625 -2.859375 5.6875q-0.65625 1.0624962 -1.25 1.4531212q-0.59375 0.390625 -1.296875 0.390625zm12.460632 -3.6874962q0.234375 0 0.375 0.21875q0.140625 0.21875 0.140625 0.609375q0 0.671875 -0.3125 1.15625q-0.53125 0.8124962 -1.375 1.2656212q-0.84375 0.4375 -2.015625 0.4375q-1.796875 0 -2.796875 -1.0624962q-0.984375 -1.078125 -0.984375 -2.90625q0 -1.296875 0.546875 -2.40625q0.546875 -1.109375 1.5 -1.75q0.96875 -0.65625 2.171875 -0.65625q1.078125 0 1.734375 0.640625q0.65625 0.640625 0.65625 1.734375q0 1.296875 -0.921875 2.21875q-0.921875 0.921875 -3.140625 1.46875q0.4375 0.859375 1.515625 0.859375q0.75 0 1.25 -0.359375q0.5 -0.359375 1.15625 -1.203125q0.21875 -0.265625 0.5 -0.265625zm-3.0625 -3.265625q-0.6875 0 -1.171875 0.796875q-0.46875 0.796875 -0.46875 1.9375l0 0.046875q1.09375 -0.265625 1.734375 -0.78125q0.640625 -0.53125 0.640625 -1.21875q0 -0.359375 -0.203125 -0.5625q-0.203125 -0.21875 -0.53125 -0.21875zm9.43335 4.234375q0.21875 -0.1875 0.421875 -0.1875q0.21875 0 0.359375 0.25q0.140625 0.25 0.140625 0.609375q0 0.78125 -0.5625 1.2499962q-0.96875 0.796875 -2.203125 0.796875q-1.765625 0 -2.59375 -1.4843712q-0.8125 -1.484375 -0.8125 -3.875q0 -2.265625 0.578125 -5.171875q0.59375 -2.921875 1.734375 -5.0q1.15625 -2.09375 2.734375 -2.09375q0.90625 0 1.40625 0.828125q0.515625 0.828125 0.515625 2.375q0 2.21875 -1.21875 5.15625q-1.21875 2.921875 -3.328125 5.78125q0.125 0.765625 0.453125 1.109375q0.34375 0.328125 0.921875 0.328125q0.328125 0 0.71875 -0.1875q0.40625 -0.1875 0.734375 -0.484375zm-0.609375 -13.0625q-0.421875 0 -0.96875 1.546875q-0.546875 1.546875 -0.953125 3.84375q-0.40625 2.296875 -0.453125 4.40625q1.328125 -2.1875 2.109375 -4.375q0.78125 -2.203125 0.78125 -4.0q0 -1.421875 -0.515625 -1.421875zm5.240509 15.781246q-1.09375 0 -1.875 -0.546875q-0.765625 -0.5468712 -1.171875 -1.4374962q-0.390625 -0.90625 -0.390625 -1.9375q0 -1.421875 0.53125 -2.53125q0.53125 -1.109375 1.4375 -1.734375q0.921875 -0.625 2.0625 -0.625q1.109375 0 1.890625 0.5625q0.78125 0.546875 1.171875 1.4375q0.390625 0.890625 0.390625 1.921875q0 1.421875 -0.546875 2.53125q-0.53125 1.109375 -1.453125 1.7343712q-0.921875 0.625 -2.046875 0.625zm0.203125 -2.0156212q0.640625 0 1.078125 -0.6875q0.4375 -0.6875 0.4375 -2.015625q0 -1.03125 -0.375 -1.546875q-0.375 -0.53125 -0.890625 -0.53125q-0.671875 0 -1.109375 0.6875q-0.4375 0.6875 -0.4375 2.015625q0 1.078125 0.359375 1.578125q0.375 0.5 0.9375 0.5zm12.482529 -3.765625q0 1.46875 -0.6875 2.796875q-0.671875 1.3125 -1.796875 2.1406212q-1.125 0.8125 -2.421875 0.84375q-0.234375 3.59375 -1.09375 6.015625q-0.859375 2.421875 -2.53125 2.421875q-1.0 0 -1.484375 -0.734375q-0.484375 -0.71875 -0.484375 -2.015625q0 -1.828125 0.84375 -4.265625q0.828125 -2.4375 2.59375 -5.359371q0 -2.71875 -0.046875 -3.78125q-0.015625 -0.546875 0.421875 -0.859375q0.453125 -0.328125 1.125 -0.328125q0.390625 0 0.5625 0.171875q0.1875 0.15625 0.203125 0.625q0 0.453125 0.015625 0.6875q0.609375 -0.75 1.1875 -1.078125q0.578125 -0.328125 1.21875 -0.328125q1.046875 0 1.703125 0.84375q0.671875 0.84375 0.671875 2.203125zm-4.8125 3.984375q0.671875 -0.140625 1.234375 -0.71875q0.578125 -0.59375 0.90625 -1.453125q0.34375 -0.875 0.34375 -1.828125q0 -0.5625 -0.234375 -0.84375q-0.21875 -0.296875 -0.59375 -0.296875q-0.671875 0 -1.625 1.421875q-0.015625 0.8125 -0.015625 2.40625q0 0.84375 -0.015625 1.3125zm-3.5625 8.406246q0.5 0 0.828125 -2.203125q0.34375 -2.1875 0.4375 -5.453125q-0.796875 1.875 -1.265625 3.5625q-0.46875 1.703125 -0.46875 2.859375q0 0.59375 0.140625 0.90625q0.140625 0.328125 0.328125 0.328125zm16.197784 -10.296871q0.234375 0 0.375 0.21875q0.140625 0.21875 0.140625 0.609375q0 0.671875 -0.3125 1.15625q-0.53125 0.8124962 -1.375 1.2656212q-0.84375 0.4375 -2.015625 0.4375q-1.796875 0 -2.796875 -1.0624962q-0.984375 -1.078125 -0.984375 -2.90625q0 -1.296875 0.546875 -2.40625q0.546875 -1.109375 1.5 -1.75q0.96875 -0.65625 2.171875 -0.65625q1.078125 0 1.734375 0.640625q0.65625 0.640625 0.65625 1.734375q0 1.296875 -0.921875 2.21875q-0.921875 0.921875 -3.140625 1.46875q0.4375 0.859375 1.515625 0.859375q0.75 0 1.25 -0.359375q0.5 -0.359375 1.15625 -1.203125q0.21875 -0.265625 0.5 -0.265625zm-3.0625 -3.265625q-0.6875 0 -1.171875 0.796875q-0.46875 0.796875 -0.46875 1.9375l0 0.046875q1.09375 -0.265625 1.734375 -0.78125q0.640625 -0.53125 0.640625 -1.21875q0 -0.359375 -0.203125 -0.5625q-0.203125 -0.21875 -0.53125 -0.21875zm11.5896 0.71875q0.40625 0 0.6875 0.296875q0.296875 0.28125 0.296875 0.71875q0 0.234375 -0.109375 0.515625q-0.296875 0.6875 -0.84375 1.15625q-0.546875 0.46875 -1.1875 0.46875q-0.53125 0 -0.890625 -0.375q-0.359375 -0.375 -0.359375 -1.0q0 -0.359375 0.03125 -0.765625q0.03125 -0.296875 0.03125 -0.421875q0 -0.140625 -0.0625 -0.21875q-0.0625 -0.078125 -0.15625 -0.078125q-0.265625 0 -0.71875 0.625q-0.4375 0.625 -0.890625 1.65625q-0.4375 1.03125 -0.71875 2.15625q-0.203125 0.9062462 -0.46875 1.2031212q-0.265625 0.296875 -0.859375 0.296875q-0.703125 0 -1.0 -0.75q-0.28125 -0.7499962 -0.28125 -2.3906212q0 -2.421875 0.6875 -4.609375q0.171875 -0.53125 0.546875 -0.78125q0.390625 -0.25 1.078125 -0.25q0.375 0 0.515625 0.09375q0.15625 0.09375 0.15625 0.34375q0 0.296875 -0.28125 1.34375q-0.1875 0.75 -0.296875 1.3125q-0.109375 0.5625 -0.1875 1.375q0.609375 -1.609375 1.375 -2.609375q0.765625 -1.0 1.484375 -1.421875q0.734375 -0.4375 1.328125 -0.4375q0.546875 0 0.828125 0.3125q0.296875 0.296875 0.296875 0.890625q0 0.359375 -0.203125 1.34375l0.171875 0z" fill-rule="nonzero"/></g></svg>